<svg xmlns="http://www.w3.org/2000/svg" xmlns:xlink="http://www.w3.org/1999/xlink" viewBox="0,0,256,256" width="50px" height="50px"><g fill="#971414" fill-rule="nonzero" stroke="none" stroke-width="1" stroke-linecap="butt" stroke-linejoin="miter" stroke-miterlimit="10" stroke-dasharray="" stroke-dashoffset="0" font-family="none" font-weight="none" font-size="none" text-anchor="none" style="mix-blend-mode: normal"><g transform="scale(5.12,5.12)"><path d="M17,4c-0.43359,0 -0.81641,0.27734 -0.95312,0.69141l-12.95312,40c-0.09766,0.30469 -0.04297,0.63672 0.14453,0.89844c0.1875,0.25781 0.48828,0.41016 0.80859,0.41016h11.95313c0.25,0 0.49219,-0.09375 0.67578,-0.26562l13,-12c0.00391,-0.00391 0.00781,-0.00391 0.01172,-0.00781l3.35156,11.55469c0.125,0.42578 0.51563,0.71875 0.96094,0.71875h11.95313c0.32031,0 0.62109,-0.15234 0.80859,-0.41016c0.1875,-0.26172 0.24219,-0.59375 0.14453,-0.89844l-12.95312,-40c-0.13672,-0.41406 -0.51953,-0.69141 -0.95312,-0.69141zM17.72656,6h14.54688l12.30469,38h-9.82812l-8.78906,-30.28125c-0.125,-0.42187 -0.50781,-0.71484 -0.94922,-0.71875c-0.44141,-0.00391 -0.83203,0.27734 -0.96484,0.69922l-6,19c-0.09766,0.30469 -0.04297,0.63672 0.14844,0.89063c0.1875,0.25781 0.48438,0.41016 0.80469,0.41016h7.44141l-10.83203,10h-10.1875zM24.95703,17.44922l4.23047,14.57031c-0.05859,-0.01172 -0.125,-0.01953 -0.1875,-0.01953h-8.63672z"></path></g></g></svg>