<?xml version="1.0" standalone="no"?>
<svg xmlns:xlink="http://www.w3.org/1999/xlink" id="wave" style="transform:rotate(0deg); transition: 0.3s" viewBox="0 0 1440 200" version="1.1" xmlns="http://www.w3.org/2000/svg"><defs><linearGradient id="sw-gradient-0" x1="0" x2="0" y1="1" y2="0"><stop stop-color="rgba(99.567, 175.504, 255, 1)" offset="0%"/><stop stop-color="rgba(116.845, 184.341, 255, 1)" offset="100%"/></linearGradient></defs><path style="transform:translate(0, 0px); opacity:1" fill="url(#sw-gradient-0)" d="M0,80L80,73.3C160,67,320,53,480,60C640,67,800,93,960,93.3C1120,93,1280,67,1440,76.7C1600,87,1760,133,1920,153.3C2080,173,2240,167,2400,143.3C2560,120,2720,80,2880,63.3C3040,47,3200,53,3360,53.3C3520,53,3680,47,3840,63.3C4000,80,4160,120,4320,130C4480,140,4640,120,4800,93.3C4960,67,5120,33,5280,40C5440,47,5600,93,5760,93.3C5920,93,6080,47,6240,46.7C6400,47,6560,93,6720,93.3C6880,93,7040,47,7200,43.3C7360,40,7520,80,7680,103.3C7840,127,8000,133,8160,113.3C8320,93,8480,47,8640,36.7C8800,27,8960,53,9120,63.3C9280,73,9440,67,9600,76.7C9760,87,9920,113,10080,103.3C10240,93,10400,47,10560,50C10720,53,10880,107,11040,130C11200,153,11360,147,11440,143.3L11520,140L11520,200L11440,200C11360,200,11200,200,11040,200C10880,200,10720,200,10560,200C10400,200,10240,200,10080,200C9920,200,9760,200,9600,200C9440,200,9280,200,9120,200C8960,200,8800,200,8640,200C8480,200,8320,200,8160,200C8000,200,7840,200,7680,200C7520,200,7360,200,7200,200C7040,200,6880,200,6720,200C6560,200,6400,200,6240,200C6080,200,5920,200,5760,200C5600,200,5440,200,5280,200C5120,200,4960,200,4800,200C4640,200,4480,200,4320,200C4160,200,4000,200,3840,200C3680,200,3520,200,3360,200C3200,200,3040,200,2880,200C2720,200,2560,200,2400,200C2240,200,2080,200,1920,200C1760,200,1600,200,1440,200C1280,200,1120,200,960,200C800,200,640,200,480,200C320,200,160,200,80,200L0,200Z"/></svg>